/* XPM */
static char *result[] = {
/* columns rows colors chars-per-pixel */
"20 20 3 1 ",
"  c black",
". c #007B6B",
"X c None",
/* pixels */
"X                  X",
" .................. ",
" .......... .... .. ",
" .. .... .. ....... ",
" ............. .... ",
" .................. ",
" ..... ... .... ... ",
" .. ...... ...  ... ",
" .........  .. .... ",
" ....... .......... ",
" ... ........... .. ",
" ...  ........ .... ",
" ......    ........ ",
" ... .............. ",
" .......... ... ... ",
" .. ............... ",
" ......  .......... ",
" ............. .... ",
" .................. ",
"X                  X"
};
