/* XPM */
static char *result[] = {
/* columns rows colors chars-per-pixel */
"20 20 2 1 ",
"  c black",
". c #41A687",
/* pixels */
"                    ",
"  ................  ",
" . .............. . ",
" .. ............ .. ",
" ... .......... ... ",
" .... ........ .... ",
" ..... ...... ..... ",
" ...... .... ...... ",
" ....... .. ....... ",
" ........  ........ ",
" ........  ........ ",
" ....... .. ....... ",
" ...... .... ...... ",
" ..... ...... ..... ",
" .... ........ .... ",
" ... .......... ... ",
" .. ............ .. ",
" . .............. . ",
"  ................  ",
"                    "
};
